<svg width="96" height="13" viewBox="0 0 96 13" fill="none" xmlns="http://www.w3.org/2000/svg">
<g clip-path="url(#clip0_268_6064)">
<path d="M77.3546 5.90834L73.6462 2.10019H71.4782V10.918H73.7407V5.29103L77.1277 8.62419H77.5455L80.874 5.29103V10.918H83.1382V2.10019H80.9702L77.3546 5.90834ZM93.9249 2.10019L88.3132 7.83145V2.10019H86.0506V10.918H88.1241L93.7357 5.18676V10.918H96V2.10019H93.9249ZM59.2818 5.32744C59.2818 6.73087 60.1139 7.83641 61.3896 8.29981L58.9964 10.918H61.7678L63.9444 8.53482H66.2998V10.918H68.5641V2.10019H62.8011C60.652 2.10019 59.2818 3.45729 59.2818 5.32744ZM66.3015 4.0415V6.64978H63.2206C62.1925 6.64978 61.6389 6.12018 61.6389 5.34399C61.6389 4.56779 62.2114 4.03985 63.2206 4.03985L66.3015 4.0415ZM48.7616 3.86276C48.6241 6.89637 47.9295 8.85258 46.573 8.85258H46.2343V10.971L46.5954 10.9875C49.3152 11.1282 50.8196 8.92374 51.0654 4.10936H54.6432V10.918H56.9023V2.10019H48.839L48.7616 3.86276ZM40.2393 1.97607C37.1755 1.97607 34.9732 3.93393 34.9732 6.50745C34.9732 9.17199 37.3698 11.0587 40.2393 11.0587C43.2256 11.0587 45.5466 9.06442 45.5466 6.50745C45.5466 3.95048 43.2256 1.97772 40.2393 1.97772V1.97607ZM40.2393 8.9436C38.508 8.9436 37.3286 7.90096 37.3286 6.50745C37.3286 5.07919 38.508 4.06798 40.2393 4.06798C41.9671 4.06798 43.1878 5.12718 43.1878 6.50745C43.1878 7.89103 41.9499 8.94195 40.2393 8.94195V8.9436ZM32.5714 2.11674H24.5802L24.5046 3.87931C24.3911 6.41973 23.6742 8.83603 22.316 8.87078L21.6885 8.88899V13L23.9734 12.995V10.918H31.906V12.995H34.2081V8.87078H32.5714V2.11674ZM30.3071 8.87078H25.476C26.2944 7.72553 26.731 6.06722 26.8084 4.12756H30.3088L30.3071 8.87078ZM16.3983 0H14.2836V10.7889H16.3983V0ZM2.11641 2.20777H0V12.995H2.11469L2.11641 2.20777ZM6.87704 1.46964H4.76235V12.2586H6.87704V1.46964ZM11.6394 0.736474H9.51954V11.5221H11.6394V0.736474Z" fill="#C3C3C3"/>
</g>
<defs>
<clipPath id="clip0_268_6064">
<rect width="96" height="13" fill="white"/>
</clipPath>
</defs>
</svg>
