<svg width="34" height="20" viewBox="0 0 34 20" fill="none" xmlns="http://www.w3.org/2000/svg">
<g clip-path="url(#clip0_268_6049)">
<g clip-path="url(#clip1_268_6049)">
<path d="M21.675 2.0835H11.9V17.9168H21.675V2.0835Z" fill="#B7B7B7"/>
<path d="M13.0871 9.99877C13.086 8.48405 13.4378 6.9891 14.1156 5.62793C14.7944 4.26489 15.7808 3.07126 17 2.13752C15.4862 0.978077 13.6713 0.257525 11.7611 0.0575112C9.85094 -0.142502 7.9218 0.18602 6.1923 1.00585C4.46501 1.82439 3.00731 3.10262 1.98565 4.6946C0.96625 6.28372 0.425293 8.12276 0.425049 10C0.425049 11.8763 0.965649 13.7146 1.98565 15.3054C3.0072 16.8974 4.46474 18.1756 6.19187 18.9942C7.92141 19.8141 9.85065 20.1427 11.7609 19.9427C13.6712 19.7427 15.4862 19.0221 17 17.8625C15.7803 16.9285 14.7936 15.7344 14.1147 14.3709C13.437 13.0092 13.0855 11.5138 13.0871 9.99877Z" fill="#C3C3C3"/>
<path d="M32.4955 16.2499V15.9045H32.637V15.8332H32.3V15.9045H32.433V16.2499H32.4955ZM33.15 16.2499V15.8332H33.048L32.929 16.1307L32.81 15.8332H32.708V16.2499H32.7815V15.9345L32.892 16.2053H32.9685L33.079 15.9345V16.2499H33.15ZM33.575 10.0011C33.5747 11.8783 33.0338 13.7172 32.0144 15.3061C30.9927 16.898 29.535 18.1761 27.8077 18.9945C26.0781 19.8142 24.1489 20.1425 22.2387 19.9422C20.3284 19.7419 18.5136 19.021 17 17.8611C18.2186 16.9268 19.2047 15.7331 19.8836 14.3703C20.5614 13.0092 20.9136 11.5145 20.9136 9.99987C20.9136 8.48524 20.5614 6.99056 19.8836 5.62945C19.2047 4.26649 18.2187 3.07266 17 2.1382C18.5137 0.978404 20.3284 0.257496 22.2387 0.0571849C24.1489 -0.143126 26.0781 0.185172 27.8077 1.00487C29.5351 1.82335 30.9928 3.10159 32.0144 4.69362C33.0338 6.28259 33.5747 8.12149 33.575 9.99862V10.0011Z" fill="#DAD9D9"/>
</g>
</g>
<defs>
<clipPath id="clip0_268_6049">
<rect width="34" height="20" fill="white"/>
</clipPath>
<clipPath id="clip1_268_6049">
<rect width="34" height="20" fill="white"/>
</clipPath>
</defs>
</svg>
