<svg width="58" height="16" viewBox="0 0 58 16" fill="none" xmlns="http://www.w3.org/2000/svg">
<g clip-path="url(#clip0_268_6058)">
<g clip-path="url(#clip1_268_6058)">
<path fill-rule="evenodd" clip-rule="evenodd" d="M41.731 7.22852V16.0002H46.7186V10.8022H52.3716C54.7506 10.7848 56.7714 9.30018 57.5336 7.22885H41.731V7.22852Z" fill="#C3C3C3"/>
<path fill-rule="evenodd" clip-rule="evenodd" d="M41.0657 0C41.3564 3.58533 44.8282 6.41633 49.068 6.41633H57.7407C57.8048 6.08733 57.8383 5.748 57.8383 5.401C57.8383 2.431 55.3855 0.022 52.3518 0H41.0657Z" fill="#DADADA"/>
<path fill-rule="evenodd" clip-rule="evenodd" d="M33.684 6.331L33.6878 6.32267H33.6884C33.7203 6.2667 33.7701 6.22251 33.8302 6.19689C33.8903 6.17127 33.9573 6.16563 34.021 6.18086C34.0847 6.19608 34.1415 6.23131 34.1827 6.28114C34.2239 6.33097 34.2472 6.39264 34.249 6.45667L34.2493 15.9187H39.237V0H34.2493C33.6168 0.0206667 32.902 0.474 32.6366 1.03067L28.667 9.34733C28.6574 9.38081 28.6423 9.41255 28.6223 9.44133L28.621 9.444H28.6203C28.58 9.50093 28.5221 9.54378 28.4551 9.5663C28.3881 9.58882 28.3154 9.58982 28.2478 9.56916C28.1802 9.5485 28.1211 9.50726 28.0792 9.45146C28.0372 9.39566 28.0146 9.32823 28.0147 9.259V0H23.0267V15.9187H28.0147V15.917C28.6401 15.885 29.3381 15.4367 29.5998 14.888L33.6734 6.35233C33.6766 6.34509 33.6803 6.33798 33.684 6.331ZM15.0592 6.60333L12.1438 15.9187H8.55602L5.63896 6.59733C5.62363 6.5186 5.57871 6.44831 5.51302 6.4003C5.44734 6.35228 5.36564 6.33001 5.284 6.33787C5.20236 6.34572 5.12668 6.38313 5.07184 6.44275C5.017 6.50236 4.98698 6.57985 4.98766 6.66V15.9187H0V0H5.55606C6.47382 0 7.43594 0.696 7.70376 1.553L10.1312 9.31C10.252 9.696 10.4478 9.69567 10.5686 9.31L12.9961 1.55333C13.2646 0.695333 14.226 0 15.1438 0H20.6992V15.9187H15.7112V6.656C15.7113 6.57548 15.6804 6.49786 15.6246 6.43857C15.5689 6.37927 15.4923 6.34265 15.4102 6.33597C15.328 6.3293 15.2463 6.35306 15.1813 6.40253C15.1163 6.452 15.0727 6.5239 15.0592 6.60333Z" fill="#C3C3C3"/>
</g>
</g>
<defs>
<clipPath id="clip0_268_6058">
<rect width="58" height="16" fill="white"/>
</clipPath>
<clipPath id="clip1_268_6058">
<rect width="58" height="16" fill="white"/>
</clipPath>
</defs>
</svg>
