<svg width="57" height="29" viewBox="0 0 57 29" fill="none" xmlns="http://www.w3.org/2000/svg">
<g clip-path="url(#clip0_268_6067)">
<path d="M49.2967 11.6724V18.7532H46.7925V13.7749H44.3837V18.7532H41.8795V11.6724H49.2967Z" fill="#C3C3C3"/>
<path fill-rule="evenodd" clip-rule="evenodd" d="M36.7519 18.995C38.9938 18.995 40.6394 17.5933 40.6394 15.4908C40.6394 13.4608 39.4231 12.1316 37.372 12.1316C36.418 12.1316 35.6549 12.47 35.0586 13.05C35.2017 11.8416 36.2034 10.9716 37.3005 10.9716H39.4708L40.5678 8.86914C40.5678 8.86914 38.159 8.91747 37.0381 8.91747C34.4862 8.96581 32.7452 11.31 32.7452 14.1858C32.7452 17.545 34.4385 18.995 36.7519 18.995ZM36.7758 14.0166C37.6105 14.0166 38.1829 14.5725 38.1829 15.515C38.1829 16.3608 37.6821 17.0616 36.7758 17.0616C35.9172 17.0616 35.3448 16.4091 35.3448 15.515C35.3448 14.5725 35.9172 14.0166 36.7758 14.0166Z" fill="#C3C3C3"/>
<path d="M30.7179 16.3848C30.7179 16.3848 30.1217 16.7231 29.2393 16.7956C28.2376 16.8198 27.3313 16.1673 27.3313 15.0315C27.3313 13.8956 28.1183 13.2673 29.2154 13.2673C29.8832 13.2673 30.7656 13.7265 30.7656 13.7265C30.7656 13.7265 31.4096 12.5181 31.7435 11.914C31.1234 11.4306 30.3125 11.189 29.3585 11.189C26.9497 11.189 25.0895 12.784 25.0895 15.0073C25.0895 17.279 26.8305 18.8256 29.3585 18.7773C30.074 18.7531 31.028 18.5115 31.6242 18.1248L30.7179 16.3848Z" fill="#C3C3C3"/>
<path d="M0 6.30762L3.45816 12.591V16.4093L0 22.6926V6.30762Z" fill="#A4A4A4"/>
<path d="M13.308 10.2949L16.5515 8.28906H23.2055L13.308 14.4274V10.2949Z" fill="#ACACAC"/>
<path d="M13.2841 6.28333L13.3079 14.5967L9.82593 12.4217V0L13.2841 6.28333Z" fill="#D1D1D1"/>
<path d="M23.2054 8.28917H16.5515L13.2841 6.28333L9.82593 0L23.2054 8.28917Z" fill="#C0C0C0"/>
<path d="M13.3079 22.7167V18.6809L9.82593 16.5542V29L13.3079 22.7167Z" fill="#C0C0C0"/>
<path d="M16.5515 20.711L3.45816 12.591L0 6.30762L23.1816 20.711H16.5515Z" fill="#B5B5B5"/>
<path d="M9.82593 29.0001L13.3079 22.7168L16.5515 20.7109H23.1816L9.82593 29.0001Z" fill="#BABABA"/>
<path d="M0 22.6925L9.84979 16.5783L6.55858 14.5L3.48201 16.4092L0 22.6925Z" fill="#BABABA"/>
</g>
<defs>
<clipPath id="clip0_268_6067">
<rect width="57" height="29" fill="white"/>
</clipPath>
</defs>
</svg>
