<svg width="60" height="18" viewBox="0 0 60 18" fill="none" xmlns="http://www.w3.org/2000/svg">
<g clip-path="url(#clip0_268_6054)">
<path d="M25.9987 17.7402H21.1387L24.18 0.316161H29.04L25.9987 17.7402ZM43.62 0.740162C42.2244 0.243349 40.7479 -0.00729152 39.2607 0.000161451C34.4607 0.000161451 31.08 2.37216 31.0593 5.76416C31.018 8.26816 33.48 9.65816 35.3193 10.4922C37.2 11.3442 37.8393 11.9022 37.8393 12.6622C37.8187 13.8282 36.3187 14.3662 34.92 14.3662C32.9793 14.3662 31.9407 14.0902 30.36 13.4402L29.7187 13.1602L29.04 17.0722C30.178 17.5542 32.28 17.9822 34.4607 18.0002C39.5607 18.0002 42.8814 15.6642 42.9187 12.0502C42.9393 10.0662 41.64 8.54616 38.8407 7.30416C37.14 6.50616 36.0993 5.97016 36.0993 5.15416C36.12 4.41216 36.9787 3.65416 38.8987 3.65416C40.1413 3.61936 41.3768 3.84663 42.5193 4.32016L42.958 4.50416L43.62 0.740162ZM50.0793 11.5682L52.02 6.69216C51.9993 6.73016 52.4193 5.67216 52.6593 5.02416L52.9987 6.52416C52.9987 6.52416 53.9193 10.6962 54.12 11.5682H50.0793ZM56.0793 0.316161H52.32C51.1614 0.316161 50.28 0.630161 49.7793 1.76216L42.5587 17.7402H47.6587L48.6787 15.1262H54.9207C55.0593 15.7382 55.5 17.7402 55.5 17.7402H60L56.0793 0.316161ZM17.0793 0.316161L12.3207 12.1962L11.7993 9.78816C10.92 7.00816 8.15797 3.98816 5.07935 2.48416L9.43866 17.7222H14.58L22.2187 0.316161H17.0793Z" fill="#C3C3C3"/>
<path d="M7.89931 0.315918H0.0786207L0 0.667918C6.09931 2.11392 10.14 5.59992 11.7993 9.78792L10.1007 1.77992C9.81931 0.667918 8.95862 0.351918 7.89931 0.315918Z" fill="#DADADA"/>
</g>
<defs>
<clipPath id="clip0_268_6054">
<rect width="60" height="18" fill="white"/>
</clipPath>
</defs>
</svg>
