<svg width="13" height="15" viewBox="0 0 13 15" fill="none" xmlns="http://www.w3.org/2000/svg">
    <path d="M6.969 2.952l-.953-.002c-2.174-.005-4.06 1.76-4.076 3.9v2.463c0 .514-.065 1.015-.345 1.442l-.186.285c-.284.431.021 1.01.531 1.01h9.12c.51 0 .815-.579.532-1.01l-.187-.285c-.28-.427-.345-.929-.345-1.442V6.85c-.026-2.14-1.918-3.893-4.091-3.898zM8.45 12.05a1.95 1.95 0 1 1-3.9 0" fill="#fff"/>
    <path d="M8.45 12.05a1.95 1.95 0 1 1-3.9 0M6.97 2.952l-.953-.002c-2.174-.005-4.06 1.76-4.076 3.9v2.463c0 .514-.065 1.015-.345 1.442l-.186.285c-.284.431.021 1.01.531 1.01h9.12c.51 0 .815-.579.532-1.01l-.187-.285c-.28-.427-.345-.929-.345-1.442V6.85c-.026-2.14-1.918-3.893-4.091-3.898z" stroke="#CDC8C3" stroke-linecap="round" stroke-linejoin="round"/>
    <path d="M6.5 1a1.3 1.3 0 0 1 1.3 1.3v.65H5.2V2.3A1.3 1.3 0 0 1 6.5 1z" fill="#fff" stroke="#CDC8C3" stroke-linecap="round" stroke-linejoin="round"/>
</svg>
