<svg width="24" height="23" viewBox="0 0 24 23" fill="none" xmlns="http://www.w3.org/2000/svg">
    <path d="M9.061 22.053v-9.06H4.245c0-.926.054-1.851.163-2.776.163-.98.436-1.85.816-2.613.381-.761.871-1.36 1.47-1.795.599-.49 1.36-.735 2.286-.735V.992c-1.524 0-2.858.327-4 .98a8.746 8.746 0 0 0-2.858 2.612C1.415 5.672.871 6.951.49 8.421.163 9.836 0 11.36 0 12.992v9.061h9.061zm14.939 0v-9.06h-4.816c0-.926.054-1.851.163-2.776.163-.98.435-1.85.816-2.613.381-.761.871-1.36 1.47-1.795.598-.49 1.36-.735 2.285-.735V.992c-1.523 0-2.857.327-4 .98a8.746 8.746 0 0 0-2.857 2.612c-.707 1.088-1.252 2.367-1.632 3.837-.327 1.415-.49 2.939-.49 4.571v9.061H24z" fill="#BFBFBF"/>
</svg>
