<svg xmlns="http://www.w3.org/2000/svg"><symbol id="arr-left" viewBox="0 0 16 16">
    <path d="M8.93.858l-7.071 7.07L8.929 15M3 8h13" stroke-width="2"/>
</symbol><symbol id="arr-right" viewBox="0 0 16 16">
    <path d="M7.07 15.142l7.071-7.07L7.071 1M13 8H0" stroke-width="2"/>
</symbol><symbol id="bag" viewBox="0 0 16 17">
    <path fill-rule="evenodd" clip-rule="evenodd" d="M12.176 5.488V4.226C12.176 1.892 10.306 0 8 0S3.824 1.892 3.824 4.226v1.262H0v7.464C0 15.188 1.79 17 4 17h8c2.21 0 4-1.812 4-4.048V5.488h-3.824zm-1.2 1.544c0 .335.268.607.6.607.331 0 .6-.272.6-.607v-.33H14.8v6.25c0 1.565-1.254 2.834-2.8 2.834H4c-1.546 0-2.8-1.269-2.8-2.834v-6.25h2.624v.33c0 .335.269.607.6.607.332 0 .6-.272.6-.607v-.33h5.952v.33zM5.024 5.488h5.952V4.226c0-1.664-1.333-3.012-2.976-3.012S5.024 2.562 5.024 4.226v1.262z"/>
</symbol><symbol id="chevron-left" viewBox="0 0 5.0606604 8.7071066">
    <path stroke-opacity=".9" d="M4.707.354l-4 4 4 4"/>
</symbol><symbol id="chevron-right" viewBox="0 0 5.0606604 8.7071066">
    <path stroke-opacity=".9" d="M.354 8.354l4-4-4-4"/>
</symbol><symbol id="chevron" viewBox="0 0 8.7071066 5.0606604">
    <path d="M.354.354l4 4 4-4"/>
</symbol><symbol id="del" viewBox="0 0 20 24">
    <path d="M6.668 8.333h1.667v10H6.668v-10zm5 0h1.667v10h-1.667v-10z" fill-opacity=".8"/>
    <path d="M0 3.333V5h1.667v16.667a1.667 1.667 0 0 0 1.666 1.666h13.334a1.667 1.667 0 0 0 1.666-1.666V5H20V3.333H0zm3.333 18.334V5h13.334v16.667H3.333zM6.667 0h6.666v1.667H6.667V0z" fill-opacity=".8"/>
</symbol><symbol id="filter" viewBox="0 0 32 27">
    <rect width="32" height="27" rx="5"/>
    <path stroke-width="1.5" d="M7 9.75h18M9 13.75h14M11 17.75h10"/>
</symbol><symbol id="heart-full" viewBox="0 0 20 18">
    <path d="M6.143 1C3.536 1 1.392 2.942 1.07 5.43c-.045.203-.07.417-.07.655 0 2.905 2.245 5.527 4.39 7.474a30.372 30.372 0 0 0 4.279 3.237L10 17l.331-.204s2.14-1.286 4.284-3.237C16.755 11.612 19 8.99 19 6.085c0-.238-.025-.447-.065-.646A5.114 5.114 0 0 0 13.857 1C12.26 1 10.94 1.824 10 2.957 9.06 1.824 7.74 1 6.143 1z"/>
</symbol><symbol id="heart" viewBox="0 0 18 16">
    <path fill-rule="evenodd" clip-rule="evenodd" d="M10.244.9c.847-.553 1.982-.983 3.32-.763 3.472.57 4.558 3.57 4.427 5.473-.113 2.32-1.669 4.496-3.424 6.243-1.778 1.77-3.87 3.205-5.256 4.038L9 16.078l-.31-.189c-2.423-1.478-4.176-2.962-5.418-4.2C.686 9.106.05 6.908.003 5.595-.07 3.53 1.135.516 4.574.116c2.13-.249 3.63 1.002 4.42 1.844A6.866 6.866 0 0 1 10.245.9zm.655 1.007a5.943 5.943 0 0 0-1.42 1.338l-.455.598-.482-.577C7.973 2.584 6.68 1.08 4.712 1.31c-2.597.302-3.57 2.553-3.51 4.243.035.96.51 2.88 2.917 5.283 1.126 1.124 2.71 2.474 4.885 3.834 1.323-.82 3.156-2.117 4.717-3.67 1.708-1.7 2.984-3.602 3.071-5.454v-.007l.001-.007c.106-1.486-.74-3.768-3.423-4.209-.959-.157-1.792.142-2.471.584z"/>
</symbol><symbol id="icon-close" viewBox="0 0 15.556326 15.556381">
    <path stroke-width="2" d="M14.849.707L.707 14.849M14.849 14.849L.707.707"/>
</symbol><symbol id="icon-search" viewBox="0 0 17 17">
    <path fill-rule="evenodd" clip-rule="evenodd" d="M11.507 12.356a7 7 0 1 1 .848-.848l4.07 4.068-.85.848-4.068-4.068zM12.8 7A5.8 5.8 0 1 1 1.2 7a5.8 5.8 0 0 1 11.6 0z"/>
</symbol><symbol id="minus" viewBox="0 0 32 32">
    <path d="M3 15h26v2H3z"/>
</symbol><symbol id="plus" viewBox="0 0 32 32">
    <path d="M29 15H17V3h-2v12H3v2h12v12h2V17h12z"/>
</symbol><symbol id="telegram" viewBox="0 0 23 23">
    <path d="M11.5 0C5.152 0 0 5.152 0 11.5S5.152 23 11.5 23 23 17.848 23 11.5 17.848 0 11.5 0zm5.336 7.82c-.172 1.817-.92 6.233-1.3 8.268-.16.863-.482 1.15-.781 1.185-.668.058-1.174-.437-1.818-.863-1.011-.667-1.586-1.08-2.564-1.725-1.138-.747-.402-1.161.253-1.828.173-.172 3.117-2.852 3.174-3.093a.23.23 0 0 0-.058-.207c-.069-.058-.16-.035-.241-.024-.103.024-1.713 1.093-4.853 3.209-.46.31-.874.471-1.242.46-.414-.011-1.196-.23-1.782-.425-.725-.23-1.288-.357-1.242-.76.022-.207.31-.413.85-.632 3.359-1.46 5.59-2.426 6.705-2.886 3.197-1.335 3.853-1.565 4.29-1.565.091 0 .31.023.448.138.115.093.15.219.161.311-.011.069.012.276 0 .437z"/>
</symbol><symbol id="user" viewBox="0 0 17 16">
    <path fill-rule="evenodd" clip-rule="evenodd" d="M11.045 4c0 1.546-1.286 2.8-2.872 2.8C6.587 6.8 5.3 5.546 5.3 4c0-1.546 1.286-2.8 2.872-2.8 1.586 0 2.872 1.254 2.872 2.8zm1.23 0c0 2.21-1.836 4-4.102 4S4.07 6.21 4.07 4s1.837-4 4.103-4 4.102 1.79 4.102 4zM7.383 9c-3.966 0-7.18 3.134-7.18 7h1.23c0-3.203 2.664-5.8 5.95-5.8h1.64c3.286 0 5.95 2.597 5.95 5.8h1.23c0-3.866-3.214-7-7.18-7h-1.64z"/>
</symbol><symbol id="vk" viewBox="0 0 27.999994 16">
    <path d="M27.358 1.083C27.55.46 27.358 0 26.43 0h-3.062c-.78 0-1.139.397-1.334.834 0 0-1.557 3.653-3.763 6.025-.714.688-1.039.907-1.428.907-.195 0-.488-.219-.488-.844V1.083c0-.75-.215-1.083-.863-1.083h-4.816c-.487 0-.78.347-.78.678 0 .71 1.104.874 1.217 2.872v4.34c0 .952-.178 1.125-.568 1.125-1.038 0-3.564-3.67-5.063-7.869C5.192.33 4.898 0 4.115 0H1.05C.175 0 0 .397 0 .834c0 .78 1.038 4.652 4.836 9.773C7.367 14.104 10.93 16 14.178 16c1.947 0 2.188-.42 2.188-1.146V12.21c0-.842.184-1.01.801-1.01.455 0 1.233.22 3.05 1.905C22.296 15.104 22.638 16 23.806 16h3.063c.875 0 1.313-.42 1.061-1.253-.277-.827-1.269-2.028-2.584-3.453-.714-.812-1.785-1.686-2.11-2.124-.454-.56-.324-.811 0-1.31 0 0 3.733-5.059 4.122-6.777z" clip-rule="evenodd" fill-rule="evenodd"/>
</symbol><symbol id="whatsapp" viewBox="0 0 22 23">
    <path d="M18.794 3.347A10.838 10.838 0 0 0 15.243.863 10.488 10.488 0 0 0 11.044 0C5.008 0 .088 5.118.088 11.396c0 2.013.509 3.968 1.46 5.693L0 23l5.804-1.587a10.626 10.626 0 0 0 5.24 1.392C17.08 22.805 22 17.687 22 11.408c0-3.047-1.139-5.91-3.206-8.061zm-7.75 17.525c-1.636 0-3.239-.46-4.643-1.322l-.332-.207-3.449.943.918-3.496-.221-.357a9.788 9.788 0 0 1-1.393-5.037c0-5.22 4.09-9.475 9.11-9.475 2.431 0 4.72.989 6.433 2.783a9.444 9.444 0 0 1 1.979 3.074c.457 1.15.69 2.385.686 3.63.022 5.221-4.069 9.464-9.088 9.464zm4.997-7.083c-.276-.139-1.625-.829-1.868-.932-.254-.092-.431-.138-.62.138-.187.288-.707.932-.862 1.116-.154.195-.32.218-.597.069-.276-.139-1.16-.449-2.2-1.415-.818-.759-1.36-1.69-1.525-1.978-.155-.288-.022-.437.121-.587.122-.126.277-.333.41-.494.132-.161.187-.287.276-.471.088-.196.044-.357-.022-.495a96.84 96.84 0 0 1-.84-2.116c-.222-.552-.454-.483-.62-.494h-.53c-.188 0-.476.069-.73.356-.243.288-.95.978-.95 2.38 0 1.404.983 2.76 1.116 2.944.133.196 1.935 3.071 4.676 4.301.653.3 1.161.472 1.56.598.651.219 1.248.184 1.724.116.53-.081 1.625-.69 1.846-1.357.232-.668.232-1.231.155-1.357-.078-.127-.243-.184-.52-.322z"/>
</symbol><symbol id="zen" viewBox="0 0 54.714802 24">
    <circle fill-opacity=".25" r="12" cy="12" cx="12"/>
    <path d="M19.227 4.723v12.275h1.826v5.947h-2.256V19H9.363v3.945H7.107v-5.947h1.104c.43-.788.837-1.647 1.22-2.578.385-.938.736-1.927 1.055-2.969.32-1.041.59-2.125.81-3.252.229-1.133.398-2.291.509-3.476zm-2.334 2.002h-3.155a23.981 23.981 0 0 1-.4 2.46c-.182.886-.41 1.79-.684 2.715-.273.925-.58 1.823-.918 2.696a24.555 24.555 0 0 1-1.054 2.402h6.21zm9.6 1.26c.794 0 1.506.107 2.138.322.638.208 1.142.524 1.514.947.37.423.556.95.556 1.582 0 .651-.189 1.172-.566 1.562-.371.385-.876.661-1.514.83v.088c.45.111.856.27 1.22.479.365.202.655.475.87.82.221.339.332.775.332 1.309a2.75 2.75 0 0 1-.537 1.65c-.352.495-.892.889-1.621 1.182-.73.293-1.657.44-2.783.44-.54 0-1.055-.03-1.543-.089a10.07 10.07 0 0 1-1.319-.224 5.602 5.602 0 0 1-1.035-.371v-1.973c.45.215.993.41 1.63.586.639.17 1.323.254 2.052.254a6.72 6.72 0 0 0 1.465-.147c.442-.104.79-.273 1.045-.507.26-.235.39-.547.39-.938 0-.358-.114-.654-.342-.889-.228-.234-.57-.406-1.025-.517-.456-.117-1.032-.176-1.729-.176h-1.289v-1.69h1.133c.957 0 1.706-.103 2.246-.312.547-.215.82-.586.82-1.113 0-.443-.192-.775-.576-.996-.384-.222-.973-.332-1.767-.332-.547 0-1.087.062-1.621.185a9.49 9.49 0 0 0-1.602.508l-.723-1.69a11.033 11.033 0 0 1 4.18-.781zm11.337 0c.964 0 1.79.198 2.48.595.69.397 1.221.96 1.592 1.69.371.729.557 1.601.557 2.617v1.23h-7.217c.026 1.048.306 1.856.84 2.422.54.566 1.296.85 2.266.85.69 0 1.308-.065 1.855-.196a10.31 10.31 0 0 0 1.71-.595v1.865c-.541.254-1.091.44-1.651.557-.56.117-1.23.175-2.012.175-1.061 0-1.995-.205-2.803-.615a4.5 4.5 0 0 1-1.884-1.855c-.45-.82-.674-1.84-.674-3.057 0-1.211.205-2.24.615-3.086.41-.846.986-1.49 1.728-1.934.743-.442 1.609-.664 2.598-.664zm0 1.728c-.723 0-1.308.234-1.758.703-.442.469-.703 1.156-.781 2.06h4.922c-.007-.54-.098-1.018-.273-1.435a2.082 2.082 0 0 0-.782-.976c-.345-.235-.788-.352-1.328-.352zm9.522-1.523v4.345h5.058V8.19h2.305V19H52.41v-4.668h-5.058V19h-2.305V8.19z"/>
</symbol></svg>