<svg xmlns="http://www.w3.org/2000/svg" xmlns:xlink="http://www.w3.org/1999/xlink" x="0px" y="0px" viewBox="0 0 1403 380" xml:space="preserve" fill="#000">
	<path d="M1181.71,9.84v361.97h221.71v-23.86h-168.35V167.33h163.24v-23.86h-163.24V33.69h168.35V9.84H1181.71z M950.23,9.11   c-16.57,4.55-32.04,10.92-46.41,19.11c-14.37,8.2-27.45,18.05-39.23,29.58c-11.78,11.52-21.85,24.3-30.21,38.34   c-8.37,14.04-14.86,29.17-19.49,45.4c-4.63,16.23-6.94,33.03-6.94,50.39c0,17.37,2.31,34.04,6.94,50.02   c4.63,15.99,11.12,30.96,19.49,44.91c8.36,13.96,18.43,26.66,30.21,38.1c11.78,11.44,24.85,21.3,39.23,29.58   c14.38,8.28,29.85,14.65,46.41,19.11c16.57,4.46,33.87,6.69,51.89,6.69c29.88,0,57.5-5.11,82.84-15.34   c25.34-10.22,47.59-24.42,66.76-42.6l-13.89-17.77c-7.47,8.12-16.04,15.34-25.7,21.66c-9.67,6.33-19.94,11.68-30.82,16.07   c-10.88,4.38-22.17,7.71-33.87,9.98c-11.69,2.28-23.23,3.41-34.6,3.41c-23.72,0-44.75-4.34-63.1-13.02   c-18.36-8.68-33.74-20.49-46.17-35.42c-12.43-14.93-21.85-32.29-28.26-52.09c-6.42-19.8-9.62-40.9-9.62-63.29   c0-22.88,3.25-44.3,9.75-64.26c6.49-19.96,16-37.4,28.51-52.34c12.51-14.93,27.93-26.69,46.29-35.3c18.35-8.6,39.39-12.9,63.1-12.9   c11.04,0,22.01,1.18,32.89,3.53c10.88,2.35,21.36,5.52,31.43,9.49c10.07,3.98,19.65,8.72,28.75,14.24   c9.09,5.52,17.38,11.44,24.85,17.77l13.64-18.01c-18.68-16.23-40.08-28.93-64.2-38.1c-24.12-9.17-50.31-13.75-78.57-13.75   C984.09,2.29,966.8,4.57,950.23,9.11 M774.78,9.84h-53.6v361.97h53.6V9.84z M434.87,342.35c-17.05-8.6-31.31-20.36-42.76-35.3   c-11.45-14.93-20.1-32.5-25.95-52.7c-5.85-20.2-8.77-41.91-8.77-65.12c0-23.04,2.88-44.63,8.65-64.75   c5.76-20.12,14.38-37.57,25.83-52.34c11.45-14.77,25.66-26.41,42.64-34.93c16.97-8.52,36.75-12.78,59.33-12.78   c22.25,0,41.91,4.26,58.96,12.78c17.05,8.52,31.31,20.17,42.76,34.93c11.45,14.77,20.1,32.22,25.95,52.34   c5.85,20.12,8.77,41.71,8.77,64.75c0,23.21-2.97,44.91-8.89,65.12c-5.93,20.2-14.66,37.77-26.19,52.7   c-11.53,14.93-25.79,26.7-42.76,35.3c-16.97,8.6-36.51,12.9-58.6,12.9C471.58,355.26,451.93,350.96,434.87,342.35 M545,372.05   c16.4-4.54,31.75-10.91,46.05-19.11c14.29-8.19,27.33-18.05,39.1-29.58c11.77-11.52,21.84-24.3,30.21-38.34   c8.36-14.03,14.86-29.13,19.49-45.28c4.63-16.15,6.94-32.98,6.94-50.51c0-17.2-2.31-33.84-6.94-49.9   c-4.63-16.07-11.13-31.07-19.49-45.03c-8.37-13.96-18.44-26.69-30.21-38.22c-11.78-11.52-24.81-21.38-39.1-29.58   C576.75,18.32,561.4,11.99,545,7.53c-16.41-4.46-33.46-6.69-51.16-6.69c-17.87,0-35.05,2.28-51.53,6.82   c-16.49,4.55-31.92,10.87-46.29,18.99c-14.37,8.12-27.45,17.93-39.23,29.45c-11.78,11.52-21.89,24.26-30.33,38.22   c-8.45,13.96-14.98,28.97-19.61,45.03c-4.63,16.07-6.94,32.7-6.94,49.9c0,17.53,2.31,34.36,6.94,50.51   c4.63,16.15,11.17,31.24,19.61,45.28c8.44,14.04,18.55,26.82,30.33,38.34c11.77,11.52,24.85,21.38,39.23,29.58   c14.37,8.2,29.8,14.57,46.29,19.11c16.48,4.54,33.66,6.82,51.53,6.82C511.54,378.87,528.59,376.59,545,372.05 M145.15,371.81h57.5   L189,338.95L327.39,9.84h-27.53L175.6,305.11L56.46,9.84H0.43L145.15,371.81z"/>
	<path d="M1362.38,302.49c0.98-2.62,2.39-4.89,4.23-6.81c1.84-1.92,4.07-3.43,6.69-4.52s5.59-1.64,8.89-1.67   c1.59,0,3.17,0.15,4.74,0.46c1.57,0.31,3.09,0.74,4.55,1.29c1.46,0.55,2.85,1.2,4.15,1.95c1.3,0.75,2.49,1.55,3.57,2.41l1.97-2.44   c-2.69-2.18-5.79-3.89-9.28-5.15c-3.49-1.25-7.26-1.88-11.31-1.88c-2.6,0-5.1,0.29-7.48,0.86c-2.39,0.57-4.62,1.39-6.69,2.46   c-2.07,1.07-3.96,2.35-5.66,3.84c-1.7,1.5-3.15,3.17-4.36,5.02c-1.21,1.85-2.14,3.85-2.81,6.01c-0.67,2.16-1,4.41-1,6.77   c0,2.82,0.36,5.39,1.07,7.72c0.71,2.33,1.73,4.43,3.04,6.3c1.31,1.87,2.88,3.5,4.71,4.88c1.83,1.39,3.87,2.54,6.11,3.47   c2.25,0.92,4.66,1.62,7.24,2.08c2.58,0.46,5.26,0.69,8.05,0.69h18.55v-31.78h-7.69v28.54h-7.7c-3.87,0-7.35-0.52-10.45-1.55   c-3.1-1.03-5.73-2.51-7.89-4.42c-2.16-1.91-3.81-4.22-4.97-6.91c-1.16-2.69-1.74-5.7-1.74-9.02   C1360.91,307.97,1361.4,305.11,1362.38,302.49 M1327.08,298.1l12.97,28.51h-25.69L1327.08,298.1z M1330.42,287.15h-8.22l2.81,6.3   l-19.15,42.77h4.25l2.81-6.37h28.57l2.88,6.37h8.12L1330.42,287.15z M1258.06,287.15h-8.99l2.81,3.1v45.97h3.58v-42.04l18.34,20.06   l18.45-20v41.98h7.7v-49.07h-7.7v2.05l-16.34,17.69L1258.06,287.15z"/>
	<path d="M202.92,21.98c0.8,0.55,1.44,1.29,1.91,2.21c0.47,0.92,0.81,1.98,1,3.17c0.19,1.19,0.31,2.44,0.35,3.75v1.45h-14.29   c0.02-1.49,0.19-2.92,0.49-4.3c0.3-1.38,0.78-2.6,1.42-3.65c0.64-1.05,1.46-1.88,2.45-2.51c0.99-0.63,2.18-0.95,3.58-0.95   C201.09,21.15,202.12,21.43,202.92,21.98 M193.77,19.45c-1.86,0.91-3.42,2.13-4.7,3.65c-1.27,1.52-2.24,3.27-2.91,5.25   c-0.66,1.98-1,4.03-1,6.14c0,2.54,0.35,4.81,1.05,6.78c0.7,1.98,1.78,3.66,3.26,5.03c1.48,1.37,3.36,2.42,5.64,3.14   c2.29,0.72,5.01,1.08,8.16,1.08h7.13v-2.77h-7.03c-2.12,0-3.9-0.41-5.35-1.23c-1.45-0.82-2.64-1.85-3.55-3.09   c-0.91-1.24-1.57-2.59-1.98-4.05c-0.4-1.46-0.61-2.82-0.61-4.08h20.81v-1.59c0-2.09-0.22-4.08-0.66-5.96   c-0.44-1.88-1.16-3.54-2.16-4.98c-1-1.44-2.3-2.58-3.89-3.43c-1.59-0.84-3.53-1.27-5.83-1.27   C197.76,18.08,195.63,18.54,193.77,19.45 M161.52,0.33h-6.82v50.19h6.82V23.99c1.91-0.88,3.63-1.46,5.15-1.74   c1.52-0.28,2.85-0.42,4-0.42c0.7,0,1.28,0.13,1.74,0.39c0.46,0.26,0.82,0.59,1.08,1c0.26,0.4,0.44,0.87,0.54,1.38   c0.1,0.52,0.15,1.02,0.15,1.52v24.4h6.86V25.07c0-2.45-0.56-4.23-1.67-5.33c-1.11-1.1-2.73-1.65-4.85-1.65   c-0.86,0-1.74,0.05-2.65,0.15c-0.91,0.1-1.9,0.28-2.96,0.54c-1.06,0.26-2.2,0.6-3.41,1.01c-1.22,0.42-2.54,0.94-3.99,1.57V0.33z    M151.45,18.72h-4.56V6.4l-6.49,1.96v10.36h-4.39v3.04h4.39v28.76h6.49V21.76h4.56V18.72z"/>
</svg>